<?xml version="1.0" encoding="utf-8"?>
<!-- Generator: Adobe Illustrator 24.1.2, SVG Export Plug-In . SVG Version: 6.00 Build 0)  -->
<svg version="1.1" id="Layer_1" xmlns="http://www.w3.org/2000/svg" xmlns:xlink="http://www.w3.org/1999/xlink" x="0px" y="0px"
	 viewBox="0 0 550 137" style="enable-background:new 0 0 550 137;" xml:space="preserve">
<style type="text/css">
	.st0{fill:#4D4D4D;}
	.st1{fill:#3F8F8B;}
	.st2{fill:#6EBFB5;}
	.st3{fill:#FFFFFF;stroke:#FFFFFF;stroke-width:0.25;stroke-miterlimit:10;}
	.st4{fill:none;stroke:#FFFFFF;stroke-width:0.25;stroke-miterlimit:10;}
</style>
<g>
	<path class="st0" d="M62.2,121.8c0,2.2-0.7,4-2.2,5.5c-1.5,1.5-3.2,2.4-5.3,2.5h-0.3h-0.1h-0.8c-5.4-0.2-15.1-1.4-19.9-3.7
		c-4.8-2.3-8.9-5.3-12.5-9.1c-3.5-3.8-6.3-8.2-8.4-13.2c-2.1-5-3.1-10.4-3.1-16.1L9.6,37c0-2.3,0.8-4.2,2.3-5.7
		c1.5-1.6,3.4-2.3,5.6-2.3c2.2,0,4.1,0.8,5.6,2.3c1.6,1.6,2.3,3.5,2.3,5.7l0,50.9c0,3.5,0.6,6.7,1.9,9.8c1.3,3,3,5.7,5.1,8
		c2.1,2.3,4.6,4.2,7.5,5.6c2.9,1.4,10.5,2.2,13.8,2.3h0.6c2.2,0,4,0.8,5.6,2.4C61.5,117.6,62.2,119.5,62.2,121.8z"/>
	<path class="st0" d="M143.3,88c-0.1,2.3-0.9,4.2-2.5,5.7c-1.6,1.6-3.4,2.4-5.6,2.5H79.3c0.3,1,0.8,2.1,1.4,3.3
		c0.4,0.9,0.8,1.7,1.3,2.5c0.4,0.8,0.8,1.6,1.3,2.3c-0.4-0.7-0.8-1.4-1.1-2c-0.3-0.7-0.7-1.3-1-2c1.3,2.5,3.1,4.8,5.2,6.8
		c2.1,2,4.4,3.6,7,4.7c2.8,1.2,5.8,1.9,9.2,2.1h0.5c2.2,0,4,0.8,5.5,2.3c1.5,1.5,2.2,3.4,2.2,5.7c0,2.3-0.7,4.2-2.2,5.7
		c-1.5,1.6-3.3,2.3-5.5,2.3c-0.5,0-1,0-1.4,0c-0.5,0-0.9,0-1.3-0.1c-3.5-0.3-7-1-10.3-2.2c-3.4-1.2-6.5-2.8-9.4-4.8
		c-2.9-2-5.5-4.3-7.9-7c-2.3-2.7-4.3-5.7-5.9-9c-3.1-6.5-4.5-13.4-4.2-20.7c0.3-7.3,2.3-14,6-20.2c0.3-0.5,0.7-1.1,1.1-1.6
		c0.4-0.6,0.8-1.1,1.2-1.6c3.1-4.3,6.9-7.9,11.3-10.6c4.4-2.7,9.2-4.6,14.2-5.5c6.5-1,12.8-0.5,19.1,1.6c6.3,2.1,11.7,5.6,16.2,10.4
		c3.7,3.9,6.6,8.3,8.6,13.3c2.1,5,3.1,10.2,3.1,15.7v0.3V88z M89.6,66.1c-2.4,1.7-4.5,3.7-6.3,6.1c-1.8,2.4-3.1,5-4,7.8h47.2
		c-0.4-1.3-1-2.7-1.8-4.2c-1.6-3.1-3.8-5.8-6.5-8c-2.7-2.2-5.8-3.8-9.1-4.8c-3.3-1-6.6-1.2-10.1-0.6C95.7,62.9,92.5,64.2,89.6,66.1z
		"/>
	<path class="st0" d="M211.3,104.9c0,3.4-0.6,6.6-1.9,9.6c-1.2,3-2.9,5.7-5,7.9c-2.1,2.3-4.6,4.1-7.6,5.4c-2.9,1.3-6,2-9.3,2h-34.7
		c-2.2,0-4-0.8-5.6-2.4c-1.6-1.6-2.3-3.5-2.3-5.8c0-2.2,0.8-4.2,2.3-5.8c1.5-1.6,3.4-2.4,5.6-2.4h34.4c2.3,0,4.2-0.9,5.8-2.6
		c1.6-1.7,2.5-3.7,2.5-6.1c0-2.5-0.8-4.5-2.5-6.2c-1.6-1.7-3.6-2.6-5.8-2.6h-16.3c-3.4,0-6.5-0.7-9.4-2c-2.9-1.3-5.5-3.1-7.7-5.3
		c-2.2-2.3-3.9-4.9-5.2-8c-1.3-3-1.9-6.3-1.9-9.8c0-3.5,0.6-6.7,1.9-9.8c1.3-3,3-5.7,5.2-8c2.2-2.3,4.7-4.1,7.6-5.4
		c2.9-1.3,6-2,9.4-2h16c2.2,0,4,0.8,5.6,2.4c1.5,1.6,2.3,3.5,2.3,5.8c0,2.2-0.8,4.2-2.3,5.8c-1.6,1.6-3.4,2.4-5.6,2.4h-16
		c-2.3,0.1-4.2,1-5.8,2.6c-1.6,1.7-2.4,3.7-2.4,6.2c0,2.4,0.8,4.4,2.4,6.2c1.6,1.7,3.6,2.6,5.9,2.6h16.3c3.3,0,6.5,0.7,9.4,2
		c2.9,1.3,5.5,3.1,7.7,5.4c2.2,2.3,3.9,4.9,5.2,7.9C210.6,98.2,211.3,101.4,211.3,104.9z"/>
	<path class="st1" d="M299.7,129.9c-2.2,0-4-0.8-5.5-2.3c-1.5-1.6-2.2-3.5-2.2-5.7V73.5l-10,10.4c-2,2.1-4.3,3.7-6.8,4.8
		c-2.5,1.1-5.2,1.7-8.1,1.7c-2.8,0-5.6-0.6-8.1-1.7c-2.6-1.1-4.8-2.7-6.8-4.8L242,73.4v11.2c0,2.3-0.8,4.2-2.3,5.7
		c-1.5,1.6-3.4,2.3-5.6,2.3s-4.1-0.8-5.6-2.3c-1.5-1.6-2.3-3.5-2.3-5.7V54.1c0-2.3,0.8-4.2,2.3-5.7c1.5-1.6,3.3-2.3,5.5-2.3
		c1.6,0,3.1,0.5,4.4,1.4v-0.1l1,0.9l22.4,23.3c1.5,1.4,3.2,2.1,5.2,2.1c1.8,0,3.5-0.7,5-2.1l23.1-24.1h0.1c1.3-1,2.8-1.4,4.4-1.4
		c2.2,0,4,0.8,5.5,2.3s2.3,3.5,2.3,5.7v67.7c0,2.3-0.8,4.2-2.3,5.7C303.7,129.1,301.9,129.9,299.7,129.9z"/>
	<path class="st0" d="M400,88c-0.1,2.3-0.9,4.2-2.5,5.7c-1.5,1.6-3.4,2.4-5.6,2.5H336c0.3,1,0.8,2.1,1.4,3.3
		c0.4,0.9,0.8,1.7,1.3,2.5c0.4,0.8,0.8,1.6,1.3,2.3c-0.4-0.7-0.8-1.4-1.1-2c-0.3-0.7-0.7-1.3-1-2c1.3,2.5,3.1,4.8,5.2,6.8
		c2.1,2,4.4,3.6,7,4.7c2.8,1.2,5.8,1.9,9.2,2.1h0.5c2.2,0,4,0.8,5.5,2.3c1.5,1.5,2.2,3.4,2.2,5.7c0,2.3-0.7,4.2-2.2,5.7
		c-1.5,1.6-3.3,2.3-5.5,2.3c-0.5,0-1,0-1.4,0c-0.5,0-0.9,0-1.3-0.1c-3.5-0.3-7-1-10.3-2.2c-3.4-1.2-6.5-2.8-9.4-4.8
		c-2.9-2-5.5-4.3-7.9-7c-2.3-2.7-4.3-5.7-5.9-9c-3.1-6.5-4.5-13.4-4.2-20.7c0.3-7.3,2.3-14,6-20.2c0.3-0.5,0.7-1.1,1.1-1.6
		c0.4-0.6,0.8-1.1,1.2-1.6c3.1-4.3,6.9-7.9,11.3-10.6c4.4-2.7,9.2-4.6,14.2-5.5c6.5-1,12.8-0.5,19.1,1.6s11.7,5.6,16.2,10.4
		c3.7,3.9,6.6,8.3,8.6,13.3c2.1,5,3.1,10.2,3.1,15.7v0.3V88z M346.3,66.1c-2.4,1.7-4.5,3.7-6.3,6.1c-1.8,2.4-3.1,5-4,7.8h47.2
		c-0.4-1.3-1-2.7-1.8-4.2c-1.6-3.1-3.8-5.8-6.5-8c-2.7-2.2-5.8-3.8-9.1-4.8c-3.3-1-6.6-1.2-10.1-0.6
		C352.5,62.9,349.3,64.2,346.3,66.1z"/>
	<path class="st0" d="M468,104.9c0,3.4-0.6,6.6-1.9,9.6c-1.2,3-2.9,5.7-5,7.9c-2.1,2.3-4.6,4.1-7.6,5.4c-2.9,1.3-6,2-9.3,2h-34.7
		c-2.2,0-4-0.8-5.6-2.4c-1.6-1.6-2.3-3.5-2.3-5.8c0-2.2,0.8-4.2,2.3-5.8c1.5-1.6,3.4-2.4,5.6-2.4H444c2.3,0,4.2-0.9,5.8-2.6
		s2.5-3.7,2.5-6.1c0-2.5-0.8-4.5-2.5-6.2s-3.6-2.6-5.8-2.6h-16.3c-3.4,0-6.5-0.7-9.4-2c-2.9-1.3-5.5-3.1-7.7-5.3
		c-2.2-2.3-3.9-4.9-5.2-8c-1.3-3-1.9-6.3-1.9-9.8c0-3.5,0.6-6.7,1.9-9.8c1.3-3,3-5.7,5.2-8c2.2-2.3,4.7-4.1,7.6-5.4
		c2.9-1.3,6-2,9.4-2h16c2.2,0,4,0.8,5.6,2.4c1.5,1.6,2.3,3.5,2.3,5.8c0,2.2-0.8,4.2-2.3,5.8c-1.6,1.6-3.4,2.4-5.6,2.4h-16
		c-2.3,0.1-4.2,1-5.8,2.6c-1.6,1.7-2.4,3.7-2.4,6.2c0,2.4,0.8,4.4,2.4,6.2c1.6,1.7,3.6,2.6,5.9,2.6h16.3c3.4,0,6.5,0.7,9.4,2
		c2.9,1.3,5.5,3.1,7.7,5.4c2.2,2.3,3.9,4.9,5.2,7.9C467.4,98.2,468,101.4,468,104.9z"/>
	<path class="st0" d="M540.5,104.9c0,3.4-0.6,6.6-1.9,9.6c-1.2,3-2.9,5.7-5,7.9c-2.1,2.3-4.6,4.1-7.6,5.4c-2.9,1.3-6,2-9.3,2h-34.7
		c-2.2,0-4-0.8-5.6-2.4c-1.6-1.6-2.3-3.5-2.3-5.8c0-2.2,0.8-4.2,2.3-5.8c1.5-1.6,3.4-2.4,5.6-2.4h34.4c2.3,0,4.2-0.9,5.8-2.6
		s2.5-3.7,2.5-6.1c0-2.5-0.8-4.5-2.5-6.2s-3.6-2.6-5.8-2.6h-16.3c-3.4,0-6.5-0.7-9.4-2c-2.9-1.3-5.5-3.1-7.7-5.3
		c-2.2-2.3-3.9-4.9-5.2-8c-1.3-3-1.9-6.3-1.9-9.8c0-3.5,0.6-6.7,1.9-9.8c1.3-3,3-5.7,5.2-8c2.2-2.3,4.7-4.1,7.6-5.4
		c2.9-1.3,6-2,9.4-2h16c2.2,0,4,0.8,5.6,2.4c1.5,1.6,2.3,3.5,2.3,5.8c0,2.2-0.8,4.2-2.3,5.8c-1.6,1.6-3.4,2.4-5.6,2.4h-16
		c-2.3,0.1-4.2,1-5.8,2.6c-1.6,1.7-2.4,3.7-2.4,6.2c0,2.4,0.8,4.4,2.4,6.2c1.6,1.7,3.6,2.6,5.9,2.6h16.3c3.4,0,6.5,0.7,9.4,2
		c2.9,1.3,5.5,3.1,7.7,5.4c2.2,2.3,3.9,4.9,5.2,7.9C539.9,98.2,540.5,101.4,540.5,104.9z"/>
</g>
<path class="st2" d="M276.6,124.8c0,2.3-0.7,4.2-2.2,5.8c-1.5,1.6-3.2,2.5-5.3,2.6h-0.3h-0.1h-0.8c-5.4-0.2-12.8-1.4-17.6-3.8
	c-4.8-2.3-8.9-5.5-12.5-9.4c-3.5-3.9-6.3-8.5-8.4-13.7c-2.1-5.2-3.1-10.8-3.1-16.7V54.4c0-2.3,0.8-4.3,2.3-6
	c1.5-1.6,3.4-2.4,5.6-2.4c2.2,0,4.1,0.8,5.6,2.4c1.6,1.6,2.3,3.6,2.3,6L242,89.6c0,3.6,0.6,7,1.9,10.2c1.3,3.2,3,5.9,5.1,8.3
	c2.1,2.4,6.9,4.3,9.8,5.8c2.9,1.5,6,2.3,9.2,2.4h0.6c2.2,0,4,0.8,5.6,2.5C275.8,120.5,276.6,122.5,276.6,124.8z"/>
<polygon class="st1" points="210.3,40.4 222.3,49.6 267,18.5 311.7,47.4 324.3,39.1 297.4,21.8 297.4,4.9 288.8,4.8 288.8,16.2 
	266.8,2 "/>
<path class="st3" d="M307.1,5.6"/>
<path class="st3" d="M288.8,4.9"/>
<path class="st4" d="M297.2,4.9"/>
<path class="st4" d="M288.8,4.9"/>
<path class="st3" d="M308.7,172.8"/>
<path class="st3" d="M290.4,172"/>
<path class="st4" d="M298.8,172"/>
<path class="st4" d="M290.4,172"/>
</svg>
